<svg xmlns="http://www.w3.org/2000/svg" xmlns:xlink="http://www.w3.org/1999/xlink" x="0" y="0" version="1.1" viewBox="0 0 1280 1024" style="enable-background:new 0 0 1280 1024" xml:space="preserve"><style type="text/css">.st0{fill:#010102}.st1{fill:#e9edff}.st2{fill:#69b7c1}</style><g id="Layer_2"><path d="M1222,785.8H50c-6.6,0-12-5.4-12-12V46c0-6.6,5.4-12,12-12h1172c6.6,0,12,5.4,12,12v727.8 C1234,780.4,1228.6,785.8,1222,785.8z" class="st0"/><polygon points="511.6 785.8 509 965.7 432.9 965.7 432.9 989 840.4 989 840.4 965.7 775.7 965.7 775.7 785.8"/><path d="M1182.6,745.8H88.1c-6.6,0-12-5.4-12-12V86c0-6.6,5.4-12,12-12h1094.6c6.6,0,12,5.4,12,12v647.8 C1194.6,740.4,1189.2,745.8,1182.6,745.8z" class="st1"/></g><g id="Layer_3"><g><path d="M272.8,410.4c-14.7-0.4-29.9,1.8-45.1,6.4c-16,4.8-31.5,10.9-46.3,19.6c-1.3,0.8-3.1,2.1-4.1,0.5 c-1.1-1.9,0.9-3.2,2-4.1c11.5-9.2,22.9-18.6,35.6-25.7c7.4-4.1,14.6-9.1,22.4-12.4c11-4.7,21.8-9.4,33.4-11.8 c13.2-2.7,26.4-5,39.7-4.1c10,0.7,20,1.5,29.9,3.8c10.2,2.4,20.5,4.6,30.7,7.3c12.7,3.4,25.3,7.4,38,10.6 c11.1,2.8,22.3,5.2,33.5,7.2c16.1,2.8,32.2,4,48.4,3.4c11.5-0.3,23-1.8,34.4-4.3c11.8-2.6,23.3-6.2,34.6-10.4 c1.3-0.4,2.6-0.8,3.3,0.8c0.8,1.8-0.6,2.6-1.7,3.2c-9.5,5.7-18.8,11.5-28.4,16.9c-10.7,6-21.9,10.6-33.5,13.8 c-13.8,4-27.6,8-42.1,8.6c-8.2,0.3-16.3,1.2-24.5,0.7c-12.5-0.8-24.8-2.4-37.1-5.2c-10-2.3-19.9-4.7-29.9-7.4 c-18-4.8-36.1-9.5-54.2-13.7C299.4,411,286.6,410.4,272.8,410.4z" class="st2"/><path d="M305.8,328.5c8.8-0.8,17.7,0.1,26.7,1.3c8.2,1,16.2,3,24.3,4.8c19,4.1,37.4,10.5,56.2,15.4 c9.7,2.5,19.4,4.1,29.2,5.9c15,2.7,29.9,4.7,45,3.9c10.4-0.6,20.8-1.2,31-4c3.7-1,7.5-1.1,11.3-1.4c3-0.3,4.3,1.9,5.1,5 c0.8,3.3-0.9,4.7-3,5.8c-11,5.8-22.3,10.5-33.7,14.3c-23.8,7.7-48.1,11.2-72.7,8.8c-13.8-1.3-27.5-3.8-41.1-7.4 c-16.7-4.4-33.4-8.8-50-13.4c-26.2-7.3-52.7-9.8-79.5-7.5c-14.2,1.2-28.2,4.8-41.7,10.4c-3.8,1.6-7.7,3.1-11.5,4.7 c-2.1,0.8-4.3,1.8-5.7-1.4c-1.4-3.4,0.3-5.7,2.5-7.2c4.1-2.9,8.3-5.3,12.5-8c7.2-4.4,14.5-8.8,21.7-12.9c9-5.2,18.7-8.4,28.4-11.4 C275.4,329.6,290.4,327.5,305.8,328.5z" class="st2"/><path d="M306.2,432.1c14.3,0.1,28.4,2.3,42.4,5.5c17,3.9,33.8,8.2,50.5,13c16.7,4.9,33.7,8.8,50.8,11.2 c17.1,2.5,34.4,3.4,51.8,0.8c8.9-1.4,17.8-2.1,26.6-4.3c2.6-0.7,5.8-1,6.5,3.5c0.7,4-0.5,6.2-4.1,7.9c-9.7,4.6-19.4,9.3-29.4,12.4 c-14,4.3-28,9-42.7,9.4c-7.6,0.3-15.2,1.1-22.8,0.8c-12.2-0.4-24.3-2.2-36.5-4.5c-15.3-3-30.3-7.4-45.3-11.3 c-13.3-3.4-26.7-6.7-40.2-9.6c-10.2-2.2-20.7-4-31.2-3.5c-7.1,0.3-14.2-0.3-21.2,0.3c-11.6,0.8-23.2,3.2-34.5,6.3 c-7.1,1.9-14.1,4.6-21,7.4c-1.1,0.5-2.4,0.5-3.6,0.6c-2,0.1-3.4-1-4-3.3c-0.5-2.2,0.4-3.7,1.9-4.7c5.7-3.7,11.5-7.4,17.1-11 c13.6-8.5,27.8-15.4,42.6-20.4c8.7-2.9,17.8-4,26.8-5.3C293.2,432.2,299.7,432.1,306.2,432.1z" class="st2"/><path d="M1006.5,506c-7.6,0-7.6,0-10-7.5c-7.2-21.5-14.2-43-21.6-64.4c-2.1-6.1-4.4-12.2-6.5-18.3c-0.5-1.3-0.7-3.6-2.7-3.4 c-1.6,0.2-1.8,2.1-2.1,3.4c-3.9,12.2-7.2,24.7-11.6,36.6c-3.6,9.7-6.8,19.6-10,29.4c-2.2,6.8-4.3,13.5-6.4,20.4 c-0.8,2.6-2,3.8-4.9,3.8c-11.7,0.3-11.6,0.3-15.5-13.2c-9.7-33.3-19.3-66.8-29.2-100c-1.2-4.1-0.3-4.8,3.1-4.7 c12.8,0.5,10.2-2.8,14.2,11.6c7.5,27.1,14.6,54.1,22,81.2c0.3,1.2,0.1,2.9,1.6,3.1c1.9,0.3,2-1.8,2.4-2.9 c3.4-10.3,6.6-20.8,10-31.1c3.8-11.6,7.1-23.4,11.1-34.9c2.8-7.9,5.3-15.7,7.9-23.7c0.7-2.5,2.1-3.8,4.6-3.4c0.2,0,0.3,0,0.5,0 c9.2-0.2,9.5-0.3,12.4,8.7c6.6,19.8,13,39.7,19.5,59.5c2.8,8.3,5.5,16.5,8.4,24.7c0.4,1.2,0.9,2.7,2.3,2.5c1.5-0.2,2.4-1.9,2.6-3 c0.8-6.1,3.1-11.7,4.5-17.5c3.8-15.6,7.9-31,11.9-46.4c1.5-5.8,3.2-11.6,4.4-17.5c0.6-3.2,2.6-5.6,3.5-8.5c0.9-3,3.7-2.2,5.9-2.3 c8.7-0.1,8.7-0.1,6.4,8.7c-4.1,15.4-7.5,31.2-12.8,46.2c-6.9,19.4-11.2,39.4-16.9,59.1C1014.4,505.8,1014.1,506,1006.5,506z"/><path d="M808.6,385.9c32.1-0.8,54.2,23.2,57.4,52.8c4.6,42.4-22,69.1-55.3,70.2c-36.1,1.2-56.8-23.4-60.1-52.5 C745.6,414.1,773.1,385.3,808.6,385.9z M807.5,399.1c-26.8-1-44.2,23.4-43.8,48.1c0.6,30.5,17.5,48.5,44.8,48.6 c28.6,0.2,43.8-18.7,44.1-48.9C853,418.2,833.8,398.6,807.5,399.1z"/><path d="M648.9,454c0,15.4-0.2,30.7,0.1,46.1c0.1,4.5-0.9,6.2-5.4,6.1c-10.7-0.4-9,1-9-9.8c-0.1-29.4,0-58.9,0-88.3 c0-6.1-0.1-6.1-5.8-6.1c-4.7,0-9.3-0.2-14,0c-2.9,0.1-4-0.8-4.1-4.1c-0.2-9.7-0.3-9.7,8.8-9.7c3.5,0,6.9-0.2,10.3,0 c3.6,0.3,4.7-1.4,4.7-5.1c-0.1-11.8-0.1-23.7,0-35.5c0-11.8,3.9-21.6,12.6-29.4c6.8-6.1,14.6-7.6,23.1-7.2 c3.7,0.2,7.5-0.1,11.1,1.5c2.1,0.9,2.9,1.8,1.9,4.2c-0.5,0.9-0.3,2.2-0.5,3.3c-0.6,3.7-1.5,5.8-6.4,4.7 c-17.4-3.8-25.6,3.8-27.2,23.1c-1,11.9-0.2,23.9-0.3,36c0,3.3,0.9,4.6,4.1,4.4c5.9-0.3,11.7,0,17.6-0.1c2.9-0.1,4.1,1,4.1,4.2 c-0.4,11,2,9.3-9,9.6c-4.1,0.1-8.1,0.1-12.2-0.1c-3.4-0.1-4.7,1.4-4.6,5.1C649,422.7,648.9,438.3,648.9,454z"/><path d="M714.9,410.1c0,30.2-0.1,60.5,0.1,90.7c0,4.3-1.3,5.4-5.2,5.4c-10.2-0.2-10.2,0-10.2-10.9c0-57.9,0-115.8,0-173.7 c0-7.4,0-7.4,7.1-7.4c9.6,0.1,8.1-1.1,8.1,8.6C714.9,351.8,714.9,380.9,714.9,410.1z"/><path d="M1071.1,495.3c0-6.5,4.3-11,10.9-11.1c6.9-0.1,11.1,3.7,11.1,10.1c0,7.8-4.2,12.9-10.7,12.9 C1076,507.4,1071.1,502.3,1071.1,495.3z"/></g></g></svg>