<?xml version="1.0" encoding="utf-8"?>
<!-- Generator: Adobe Illustrator 21.0.0, SVG Export Plug-In . SVG Version: 6.00 Build 0)  -->
<svg version="1.1" id="Layer_1" xmlns="http://www.w3.org/2000/svg" xmlns:xlink="http://www.w3.org/1999/xlink" x="0px" y="0px"
	 viewBox="0 0 1000 235" style="enable-background:new 0 0 1000 235;" xml:space="preserve">
<style type="text/css">
	.st0{font-family:'OpenSans-Light';}
	.st1{font-size:24px;}
	.st2{fill:none;}
	.st3{font-size:18px;}
	.st4{fill:#2850EA;}
	.st5{fill:#1E279B;}
	.st6{fill:#233EC4;}
	.st7{fill:#FFFFFF;}
	.st8{fill:#FFFFFF;stroke:#FFFFFF;stroke-miterlimit:10;}
	.st9{fill:#2850EA;stroke:#2850EA;stroke-miterlimit:10;}
	.st10{fill:url(#SVGID_1_);}
	.st11{fill:url(#SVGID_2_);}
</style>
<text transform="matrix(1 0 0 1 68.1523 118)"><tspan x="0" y="0" class="st0 st1">Before:</tspan><tspan x="-57.6" y="28.8" class="st0 st1"> Assign Objectives</tspan></text>
<text transform="matrix(1 0 0 1 479.8594 118)"><tspan x="0" y="0" class="st0 st1">During:</tspan><tspan x="-42.2" y="28.8" class="st0 st1">Data Collection</tspan></text>
<text transform="matrix(1 0 0 1 876.0723 113)"><tspan x="0" y="0" class="st0 st1">After:</tspan><tspan x="-64.4" y="28.8" class="st0 st1">Generate Metrics</tspan></text>
<rect x="3" y="171" class="st2" width="208" height="62"/>
<text transform="matrix(1 0 0 1 9.793 184.6758)"><tspan x="0" y="0" class="st0 st3">Design meeting outlines </tspan><tspan x="1.1" y="21.6" class="st0 st3">and assign objectives to </tspan><tspan x="56.7" y="43.2" class="st0 st3">attendees</tspan></text>
<rect x="415" y="171" class="st2" width="208" height="62"/>
<text transform="matrix(1 0 0 1 421.5776 184.6758)"><tspan x="0" y="0" class="st0 st3">Flow seamlessly records </tspan><tspan x="42.1" y="21.6" class="st0 st3">meeting data.</tspan></text>
<rect x="812" y="166" class="st2" width="185" height="62"/>
<text transform="matrix(1 0 0 1 830.4565 179.6758)"><tspan x="0" y="0" class="st0 st3">Flow automatically </tspan><tspan x="-8.6" y="21.6" class="st0 st3">generates a meeting </tspan><tspan x="-14.7" y="43.2" class="st0 st3">metrics report for you</tspan></text>
<g>
	<path class="st4" d="M107.5,4.4c21.5,0,39.1,17.6,39.1,39.1c0,21.5-17.6,39.1-39,39.1c-21.5,0-39.1-17.6-39.1-39.1
		C68.4,22.1,86.1,4.4,107.5,4.4z M88.1,64.5c5.6-0.5,10.7-0.7,14.7-5c4.6-5,9.5-9.7,14.2-14.7c7.4-7.9,8.1-5.3-0.5-14.3
		c-2.1-2.3-3.8-2-5.8,0.2c-4.7,5.1-9.3,10.4-14.5,15C90.6,50.5,88.4,56.4,88.1,64.5z M124,36.7c4.3-3.2,6-6.4,3.9-10.7
		c-1.7-3.3-4.8-3.9-8.1-3.3c-4.2,0.8-5.2,3.8-2.4,6.9C119.5,32,121.7,34.2,124,36.7z"/>
	<path class="st5" d="M944.8,40.8c0,21.8-17.5,39-39.6,39c-21.8,0-39-17.5-39-39.6c0-21.8,17.5-39,39.6-39
		C927.6,1.2,944.8,18.7,944.8,40.8z M912,23.6c-5.6,0-10.9-0.2-16.2,0.1c-1,0.1-2.7,2-2.8,3.1c-0.2,8.3-0.3,16.6,0,24.9
		c0,1.2,2,3.2,3.1,3.3c7.3,0.3,14.6,0.3,21.9,0.1c1.1,0,3-1.8,3-2.8c0.3-7.1,0.1-14.2,0.1-21.5c-3.4-0.2-6.1-0.3-8.8-0.4
		C912.3,28.1,912.2,26.3,912,23.6z"/>
	<path class="st6" d="M516.7,4.3c21.8,0,39,17.5,39,39.5c0,21.5-17.5,38.9-39.1,38.9c-21.9,0-39.3-17.4-39.3-39.2
		C477.3,21.6,494.8,4.3,516.7,4.3z"/>
	<path class="st7" d="M88.1,64.5c0.3-8,2.5-14,8.1-18.8c5.2-4.6,9.8-9.9,14.5-15c2-2.1,3.6-2.4,5.8-0.2c8.6,9.1,7.9,6.4,0.5,14.3
		c-4.6,5-9.5,9.7-14.2,14.7C98.8,63.8,93.6,63.9,88.1,64.5z M113.8,38.3c-0.2-0.2-0.5-0.3-0.7-0.5c-4.7,5-9.4,9.9-14.1,14.9
		c0.2,0.2,0.4,0.4,0.6,0.6C104.4,48.2,109.1,43.3,113.8,38.3z"/>
	<path class="st7" d="M124,36.7c-2.3-2.5-4.5-4.8-6.6-7.1c-1.3-1.5-2.4-1.6-2.4-3.6c0-1.4,2.6-2.9,4.8-3.3c3.3-0.6,6.4-0.1,8.1,3.3
		C130.1,30.3,128.3,33.6,124,36.7z"/>
	<path class="st8" d="M912,23.6c0.2,2.7,0.3,4.5,0.4,6.9c2.7,0.1,5.5,0.3,8.8,0.4c0,7.3,0.1,14.4-0.1,21.5c0,1-1.9,2.7-3,2.8
		c-7.3,0.2-14.6,0.3-21.9-0.1c-1.1,0-3.1-2.1-3.1-3.3c-0.3-8.3-0.3-16.6,0-24.9c0-1.1,1.7-3.1,2.8-3.1
		C901.1,23.5,906.4,23.6,912,23.6z"/>
	<path class="st7" d="M528.2,34.9c0.1,6.7-4.8,12.5-10.8,12.7c-6.2,0.2-11.5-5.4-11.6-12.4c-0.1-6.7,4.8-12.5,10.8-12.7
		C522.8,22.3,528,27.8,528.2,34.9z"/>
	<path class="st7" d="M533.2,66c-10.9,0-21.4,0-31.8,0c-0.9-5.8,2.3-12.9,7.4-13.9c5.5-1,11.4-0.9,16.9,0.1
		C530.1,53.1,533,59.5,533.2,66z"/>
	<path class="st9" d="M113.8,38.3c-4.7,5-9.5,10-14.2,15c-0.2-0.2-0.4-0.4-0.6-0.6c4.7-5,9.4-9.9,14.1-14.9
		C113.3,37.9,113.6,38.1,113.8,38.3z"/>
	<linearGradient id="SVGID_1_" gradientUnits="userSpaceOnUse" x1="189" y1="43" x2="437" y2="43">
		<stop  offset="0" style="stop-color:#2850EA"/>
		<stop  offset="1" style="stop-color:#233EC4"/>
	</linearGradient>
	<path class="st10" d="M433,47H193c-2.2,0-4-1.8-4-4v0c0-2.2,1.8-4,4-4h240c2.2,0,4,1.8,4,4v0C437,45.2,435.2,47,433,47z"/>
	<polygon class="st7" points="914,24 914,29 921,29 	"/>
</g>
<linearGradient id="SVGID_2_" gradientUnits="userSpaceOnUse" x1="591" y1="42.5" x2="839" y2="42.5">
	<stop  offset="0" style="stop-color:#233EC4"/>
	<stop  offset="1" style="stop-color:#1E279B"/>
</linearGradient>
<path class="st11" d="M835.5,46h-241c-1.9,0-3.5-1.6-3.5-3.5v0c0-1.9,1.6-3.5,3.5-3.5h241c1.9,0,3.5,1.6,3.5,3.5v0
	C839,44.4,837.4,46,835.5,46z"/>
</svg>
