<?xml version="1.0" encoding="utf-8"?>
<!-- Generator: Adobe Illustrator 21.0.0, SVG Export Plug-In . SVG Version: 6.00 Build 0)  -->
<svg version="1.1" id="Layer_1" xmlns="http://www.w3.org/2000/svg" xmlns:xlink="http://www.w3.org/1999/xlink" x="0px" y="0px"
	 viewBox="0 0 1280 1024" style="enable-background:new 0 0 1280 1024;" xml:space="preserve">
<style type="text/css">
	.st0{fill:#FBC515;}
	.st1{fill:#E4A313;}
</style>
<g>
	<path class="st0" d="M146.2,845.9c0.3-11.5,2.2-22.8,4.5-34.2c1.6-1,3.2-2,4.8-3c173-115.6,346-231.1,519-346.7
		c0.9-0.6,1.9-1.3,2.8-1.9c10.4-6.5,3.4-14.3,1-20.1c-3.3-7.9-8.8-0.6-12.4,1.8c-170.6,113.8-341,227.7-511.5,341.6
		c2-16,4.3-32,5.8-48c0.6-6.6,5.5-8.4,9.7-11.2C308.5,631.4,447.3,538.7,586,446.1c12.6-8.4,12.6-8.4,4.7-20.2
		c-11.6-17.3-11.6-17.3,6.4-29.3c20.4-13.6,40.7-27.4,61.3-40.8c5.5-3.6,8.3-7.5,9.1-14.1c9.8-89.1,54.4-157.8,133.1-205.3
		c100.9-60.9,234-45.4,312.8,35.7c98.7,101.5,91,264.9-18.9,362.3c-75.3,66.7-161.9,86.3-256.7,59.9c-7-1.9-12.3-1.7-18.6,2.7
		c-23.6,16.3-47.8,31.8-71.4,48c-5.6,3.8-8.6,4-12.1-1.9c-6.1-10.2-13.3-19.7-19.6-29.8c-3.1-4.9-6.2-7.1-11.1-2.2
		c-19,18.7-41.1,20.7-64.7,14.1c-4.7-1.3-9.1-0.2-12.4,3.1c-11.1,11.1-23.6,10.3-37.2,7.2c-16.2-3.6-16.5-3.1-19.9,13.5
		c-2.4,11.6-4.2,22.6-17.1,29.4c-7.6,4-13.5,5.3-20.5,1.4c-15.1-8.5-28.3-9.5-45.2,2.4c-15,10.6-21.8,20.8-18.9,37.4
		c1.8,10.6-1.4,18.4-12.1,23c-2.7,1.2-5.3,3-7.5,5c-14.7,13.3-30.3,18.4-48,7.9c-0.9-0.5-2-0.9-3.1-1c-8.1-1.2-41.7,23.8-42.8,31.9
		c-0.2,1.1-0.7,2.3-0.5,3.2c5,21.6-11.6,29.7-26.4,38.4c-8.1,4.8-16.1,0.3-23.7-1.4c-9.4-2.1-14.5,0.1-14.5,9.7
		c-0.1,23.4-19.6,30.4-35.3,40.5c-2,1.3-5.1,1.4-7.5,1c-29.5-4.5-59.1-9.1-88.6-13.7c138.1-92.3,276.2-184.5,414.3-276.8
		c41.7-27.9,83.4-55.9,125.3-83.5c7.3-4.8,7.5-8.3,3-14.8c-4.4-6.5-7.6-9-15.5-3.4c-20.3,14.4-41.3,27.9-62,41.7
		C464.5,633.4,305.4,739.6,146.2,845.9z M801.3,169.1c-105.9,69.5-135.2,208.4-74.4,306.1c68.1,109.5,213.5,129.3,315,64.3
		c114.5-73.4,140.7-215.4,77.5-313.5C1052.1,121.4,906.3,96.9,801.3,169.1z"/>
	<path class="st1" d="M146.2,845.9c159.1-106.2,318.3-212.5,477.4-318.7c20.7-13.8,41.7-27.3,62-41.7c7.9-5.6,11.1-3.1,15.5,3.4
		c4.4,6.5,4.3,10-3,14.8c-41.9,27.6-83.6,55.6-125.3,83.5c-138.1,92.3-276.2,184.5-414.3,276.8C141.9,863.1,141.9,863.1,146.2,845.9
		z"/>
	<path class="st1" d="M154.4,783.4c170.5-113.9,341-227.8,511.5-341.6c3.6-2.4,9.1-9.7,12.4-1.8c2.5,5.8,9.4,13.6-1,20.1
		c-1,0.6-1.9,1.3-2.8,1.9c-173,115.6-346,231.1-519,346.7c-1.6,1-3.2,2-4.8,3C150.3,802.1,152.3,792.8,154.4,783.4z"/>
	<path class="st1" d="M801.3,169.1c105-72.2,250.8-47.7,318.2,56.9c63.2,98.1,37,240.1-77.5,313.5c-101.5,65-246.9,45.2-315-64.3
		C666.2,377.5,695.4,238.5,801.3,169.1z M741.7,472.4c60.1,98.6,198.9,114.9,289.9,58.9c110.7-68.1,135.1-207.4,77.6-297.1
		c-63.5-99.2-202.7-120.2-299.4-56.2C708.8,245,678.2,382.5,741.7,472.4z"/>
	<path class="st0" d="M741.7,472.4c-63.5-89.9-32.9-227.4,68.2-294.3c96.7-64.1,235.9-43,299.4,56.2c57.4,89.7,33.1,229-77.6,297.1
		C940.5,587.3,801.8,571,741.7,472.4z M930.4,339c22.1,37.4,75.4,40.6,107.6,18.2c37.2-25.8,47.5-71.6,23.2-107.9
		c-22.7-33.9-70.8-42.3-106.4-19C916.3,255.6,906,308.3,930.4,339z"/>
	<path class="st1" d="M930.4,339c-24.5-30.6-14.1-83.4,24.5-108.7c35.6-23.3,83.7-14.9,106.4,19c24.3,36.4,13.9,82.1-23.2,107.9
		C1005.9,379.6,952.6,376.3,930.4,339z M1029.3,344.7c28.7-19,37.7-58.1,19.6-85.4c-18-27.1-57.3-34-86.5-15.1
		c-28.7,18.6-37.5,57.7-19.1,85.4C961.7,357.3,1000,364,1029.3,344.7z"/>
</g>
</svg>
