<?xml version="1.0" encoding="utf-8"?>
<!-- Generator: Adobe Illustrator 21.0.0, SVG Export Plug-In . SVG Version: 6.00 Build 0)  -->
<svg version="1.1" id="Layer_1" xmlns="http://www.w3.org/2000/svg" xmlns:xlink="http://www.w3.org/1999/xlink" x="0px" y="0px"
	 viewBox="0 0 200 200" style="enable-background:new 0 0 200 200;" xml:space="preserve">
<style type="text/css">
	.st0{fill:url(#SVGID_1_);}
	.st1{fill:#FFFFFF;}
</style>
<linearGradient id="SVGID_1_" gradientUnits="userSpaceOnUse" x1="100" y1="199" x2="100" y2="1">
	<stop  offset="0" style="stop-color:#00002F"/>
	<stop  offset="1" style="stop-color:#000008"/>
</linearGradient>
<circle class="st0" cx="100" cy="100" r="99"/>
<path class="st1" d="M65.1,150.5h70.7c8.1,0,14.6-6.6,14.6-14.6V65.1c0-8.1-6.6-14.6-14.6-14.6H65.1c-8.1,0-14.6,6.6-14.6,14.6v70.7
	C50.5,143.9,57,150.5,65.1,150.5z M56.3,65.1c0-4.8,4-8.8,8.8-8.8h70.7c4.8,0,8.8,4,8.8,8.8v70.7c0,4.8-4,8.8-8.8,8.8H65.1
	c-4.8,0-8.8-4-8.8-8.8C56.3,135.8,56.3,65.1,56.3,65.1z"/>
<path class="st1" d="M100.5,126.9c14.6,0,26.4-11.8,26.4-26.4s-11.8-26.4-26.4-26.4s-26.4,11.8-26.4,26.4S85.9,126.9,100.5,126.9z
	 M100.5,80c11.3,0,20.6,9.2,20.6,20.5s-9.2,20.5-20.6,20.5s-20.6-9.2-20.6-20.5S89.2,80,100.5,80z"/>
<path class="st1" d="M129.8,80c4.8,0,8.8-4,8.8-8.8s-4-8.8-8.8-8.8c-4.8,0-8.8,4-8.8,8.8S124.9,80,129.8,80z M129.8,68.3
	c1.6,0,3,1.3,3,3s-1.3,3-3,3s-3-1.3-3-3S128.2,68.3,129.8,68.3z"/>
</svg>
