<svg xmlns="http://www.w3.org/2000/svg" xmlns:xlink="http://www.w3.org/1999/xlink" id="Layer_1" x="0" y="0" version="1.1" viewBox="0 0 200 200" style="enable-background:new 0 0 200 200" xml:space="preserve"><style type="text/css">.st0{fill:url(#SVGID_1_)}.st1{fill:#fff}</style><g><linearGradient id="SVGID_1_" x1="99.706" x2="99.706" y1="198.694" y2=".694" gradientUnits="userSpaceOnUse"><stop offset="0" style="stop-color:#00002f"/><stop offset="1" style="stop-color:#000008"/></linearGradient><path d="M0.7,99.6C0.6,44.9,45.6-0.1,101.2,0.7c54.1,0.8,98.3,45.3,97.5,100.5c-0.8,54.1-45.4,98.3-100.6,97.5 C44.3,197.9,0.6,153.8,0.7,99.6z" class="st0"/><path d="M157.2,69.7c0,0.7,0,1.1,0,1.5c0,22.5,0,45,0,67.4c0,4.5-2.4,7.4-6.2,7.4c-33.9,0-67.9,0-101.8,0 c-3.8,0-6.2-2.9-6.2-7.4c0-22.5,0-45,0-67.4c0-0.4,0-0.9,0-1.5c2.4,1.8,4.6,3.5,6.9,5.1c14.5,10.9,29,21.8,43.5,32.6 c4.5,3.3,9.1,3.3,13.5,0c16.4-12.3,32.8-24.6,49.3-36.9C156.4,70.3,156.7,70.1,157.2,69.7z" class="st1"/><path d="M45.3,59.9c1.2-1.1,2.4-1.4,3.8-1.4c8,0,16.1,0,24.1,0c25.9,0,51.8,0,77.7,0c1.4,0,2.7,0.3,3.9,1.3 c-0.3,0.2-0.4,0.4-0.6,0.5c-16.8,12.6-33.5,25.1-50.3,37.7c-2.5,1.9-5.1,1.9-7.6,0.1c-16.9-12.6-33.8-25.3-50.7-38 C45.5,60.2,45.5,60.1,45.3,59.9z" class="st1"/></g></svg>