<?xml version="1.0" encoding="utf-8"?>
<!-- Generator: Adobe Illustrator 21.0.0, SVG Export Plug-In . SVG Version: 6.00 Build 0)  -->
<svg version="1.1" id="Layer_1" xmlns="http://www.w3.org/2000/svg" xmlns:xlink="http://www.w3.org/1999/xlink" x="0px" y="0px"
	 viewBox="0 0 200 200" style="enable-background:new 0 0 200 200;" xml:space="preserve">
<style type="text/css">
	.st0{fill:url(#SVGID_1_);}
	.st1{fill:#FFFFFF;}
</style>
<linearGradient id="SVGID_1_" gradientUnits="userSpaceOnUse" x1="100" y1="199" x2="100" y2="1">
	<stop  offset="0" style="stop-color:#00002F"/>
	<stop  offset="1" style="stop-color:#000008"/>
</linearGradient>
<circle class="st0" cx="100" cy="100" r="99"/>
<g>
	<path class="st1" d="M126.1,150c-5.5-0.2-10.8-1.5-15.9-3.6c-9.3-3.8-17.7-9.1-25.3-15.7c-6.3-5.5-12.3-11.4-17.6-17.9
		c-4.9-6-9.1-12.4-12.4-19.3c-2.6-5.6-4.5-11.4-5.1-17.6c-0.2-2-0.3-4.1,0.3-6.1c0.5-1.6,1.2-3,2.4-4.1c4.7-4.7,9.3-9.4,14-14
		c2.6-2.6,5.9-1.9,7.8,1.5c2,3.6,3.8,7.2,5.7,10.9c1.7,3.3,3.5,6.6,5.2,9.9c1.3,2.4,1.1,4.8-0.6,6.9c-1.4,1.6-3,3.1-4.5,4.6
		c-0.1,0.1-0.2,0.2-0.3,0.3c-1.8,1.7-1.5,2.2-0.9,4.2c1.3,3.8,3.5,7.2,6,10.3c4.6,5.8,9.8,11,15.7,15.4c2.4,1.8,5,3.5,7.8,4.6
		c1,0.4,2,0.8,3.1,0.8c0.6,0,1.4-0.5,1.9-1c1.6-1.5,3.2-3.1,4.7-4.8c1.9-2.1,4.2-2.9,6.9-2.3c0.7,0.2,1.4,0.5,2,0.9
		c5,2.9,10,5.9,14.9,8.8c1.8,1.1,3.7,2,5.4,3.3c2.6,2,2.8,4.9,0.5,7.2c-3.1,3.2-6.2,6.2-9.4,9.3c-1.4,1.4-2.8,2.7-4.2,4.2
		C132.3,149.1,129.4,150.2,126.1,150z"/>
</g>
</svg>
